<?xml version="1.0" encoding="UTF-8"?>
<svg version="1.1" xmlns="http://www.w3.org/2000/svg" width="1203" height="390">
<path d="M0 0 C13.85540144 -0.44556668 27.70968046 -0.7784299 41.57079601 -0.98443127 C48.00863783 -1.08334336 54.44164856 -1.21730073 60.87670898 -1.43334961 C67.0952619 -1.64080727 73.30919166 -1.75358805 79.5309391 -1.80266762 C81.89615007 -1.83760531 84.26112512 -1.90584851 86.62434959 -2.00887108 C104.63357703 -2.76227215 104.63357703 -2.76227215 110.24795914 1.84453201 C114.24652062 6.34131224 117.11927724 11.33223141 119.8039465 16.69238186 C121.50312701 19.97071327 123.55118523 22.88107849 125.6875 25.890625 C127.12528852 28.01022099 128.56278512 30.13001501 130 32.25 C130.79770777 33.4250912 131.59548003 34.60013862 132.39331055 35.77514648 C136.284529 41.50791589 140.16833006 47.2454804 144.03388977 52.99559021 C154.05358743 67.89979356 164.14741306 82.6818811 175 97 C179.70864382 93.06612928 184.17783311 88.97871555 188.5 84.625 C189.02980469 84.0990625 189.55960938 83.573125 190.10546875 83.03125 C192.95875681 80.17105325 195.68006913 77.24474203 198.3125 74.1796875 C203.22372028 68.50567802 208.62771497 63.32690928 213.97265625 58.06640625 C217.60339172 54.47063773 221.17057357 50.87853044 224.5 47 C229.33132386 41.37187243 234.68997378 36.26563402 239.97265625 31.06640625 C240.77574219 30.27105469 241.57882813 29.47570312 242.40625 28.65625 C243.47842773 27.60147461 243.47842773 27.60147461 244.57226562 26.52539062 C249.08259713 21.83362986 253.29687451 16.92301395 257.27502441 11.77368164 C262.44468129 5.46469241 267.39695742 0.05325326 275.71166992 -1.39892578 C282.42816086 -2.04456804 289.11159319 -1.80438827 295.84375 -1.5625 C298.30945435 -1.532598 300.77525482 -1.50985096 303.24108887 -1.49389648 C309.68147708 -1.43326623 316.11594296 -1.27654157 322.55401611 -1.09863281 C329.14326876 -0.93392952 335.73349399 -0.86166653 342.32421875 -0.78125 C355.2186495 -0.61047711 368.10900757 -0.34114463 381 0 C380.06432263 1.27011541 379.12546361 2.53788727 378.18530273 3.8046875 C377.66282455 4.51093262 377.14034637 5.21717773 376.60203552 5.94482422 C374.31526742 8.87841111 371.74579139 11.43306684 369.0625 14 C365.10763749 17.81343034 361.42098048 21.75885711 357.82788086 25.91601562 C354.72924157 29.44880379 351.48461375 32.84211743 348.25 36.25 C342.7052989 42.11554258 337.20994682 48.0180343 331.76953125 53.98046875 C327.96648719 58.13896345 324.11012687 62.24777704 320.26123047 66.36376953 C316.49268557 70.39569076 312.73896493 74.44064175 309 78.5 C304.09344369 83.82643878 299.15605834 89.12343104 294.2109375 94.4140625 C290.45970457 98.42969951 286.72313543 102.45830753 283 106.5 C278.09340861 111.8264067 273.15605861 117.12343075 268.2109375 122.4140625 C264.45970457 126.42969951 260.72313543 130.45830753 257 134.5 C252.09340861 139.8264067 247.15605861 145.12343075 242.2109375 150.4140625 C238.45970457 154.42969951 234.72313543 158.45830753 231 162.5 C226.68513091 167.18405575 222.34871931 171.84735709 218 176.5 C211.6382591 183.30732385 205.31232065 190.14686473 199 197 C192.09610561 204.4953927 185.16989476 211.96879128 178.21142578 219.41357422 C174.45999941 223.42934553 170.72329131 227.45813831 167 231.5 C162.09340861 236.8264067 157.15605861 242.12343075 152.2109375 247.4140625 C148.45970457 251.42969951 144.72313543 255.45830753 141 259.5 C136.09340861 264.8264067 131.15605861 270.12343075 126.2109375 275.4140625 C122.45970457 279.42969951 118.72313543 283.45830753 115 287.5 C110.09340861 292.8264067 105.15605861 298.12343075 100.2109375 303.4140625 C96.45970457 307.42969951 92.72313543 311.45830753 89 315.5 C84.68513091 320.18405575 80.34871931 324.84735709 76 329.5 C70.14751493 335.76239921 64.32369332 342.05045458 58.51611328 348.35449219 C55.78294553 351.32092547 53.04776466 354.28550035 50.3125 357.25 C49.79478027 357.81154785 49.27706055 358.3730957 48.74365234 358.95166016 C45.11320249 362.88679751 45.11320249 362.88679751 44 364 C50.72035771 364.35849495 57.43821378 364.60151802 64.16601562 364.76904297 C66.44787664 364.83894187 68.72912217 364.93410957 71.00878906 365.05615234 C84.95944246 366.17829147 84.95944246 366.17829147 97.46386719 361.10253906 C101.10589559 357.75090572 104.06582821 353.96793185 107 350 C108.24633394 348.56060126 109.50381193 347.1306172 110.78125 345.71875 C111.29558594 345.11289062 111.80992188 344.50703125 112.33984375 343.8828125 C116.61669257 339.03236279 121.36608413 334.60020472 125.97265625 330.06640625 C129.60339172 326.47063773 133.17057357 322.87853044 136.5 319 C141.33132386 313.37187243 146.68997378 308.26563402 151.97265625 303.06640625 C156.2347238 298.8453859 160.30658559 294.56031609 164.21289062 290.00976562 C168.35056164 285.3565815 172.89008232 281.07451638 177.328125 276.7109375 C180.83092927 273.24387613 184.25763721 269.77195398 187.46875 266.03125 C192.31296029 260.39455369 197.67931072 255.27612862 202.97265625 250.06640625 C206.60339172 246.47063773 210.17057357 242.87853044 213.5 239 C218.33132386 233.37187243 223.68997378 228.26563402 228.97265625 223.06640625 C233.31666727 218.76423161 237.51095125 214.41050818 241.47924805 209.7578125 C243.85737071 207.00897911 246.33763607 204.47661761 249 202 C249.66 202 250.32 202 251 202 C252.78627062 204.43866629 254.44572444 206.88415366 256.08203125 209.421875 C256.59911148 210.21151642 257.11619171 211.00115784 257.64894104 211.81472778 C258.77880189 213.542087 259.90541542 215.27157345 261.02923584 217.00286865 C262.83509145 219.7848023 264.64908596 222.56126626 266.46533203 225.33642578 C269.0252981 229.24935254 271.58202079 233.16436804 274.13623047 237.08105469 C280.19116576 246.36191008 286.28013735 255.62033326 292.375 264.875 C293.27383408 266.24066101 293.27383408 266.24066101 294.19082642 267.63391113 C303.78714641 282.20857772 313.50880536 296.69494061 323.290802 311.14547729 C335.86364472 329.72366348 348.21891577 348.44241235 360.52407837 367.19869995 C364.2145917 372.82032681 367.94398513 378.41369453 371.71362305 383.98266602 C373 386 373 386 373 387 C359.16203864 387.46922137 345.32532495 387.81949328 331.48101616 388.03624344 C325.05076835 388.14032277 318.62588796 388.28124641 312.19873047 388.50878906 C305.98660503 388.72732355 299.77961219 388.84591115 293.56393814 388.89754486 C291.20226309 388.93429497 288.84084709 389.00607978 286.48138046 389.11460114 C268.49918056 389.90821209 268.49918056 389.90821209 262.64294815 385.04102516 C258.38373432 380.2715615 255.21908873 374.98782694 252.25798035 369.34303474 C250.62670082 366.30471653 248.72998583 363.60534789 246.6953125 360.82421875 C245.50489985 359.11219362 244.31479036 357.39995765 243.125 355.6875 C241.77344586 353.74348377 240.42188311 351.79947353 239.0703125 349.85546875 C238.39774414 348.88786621 237.72517578 347.92026367 237.03222656 346.92333984 C235.0194242 344.02794154 233.00595398 341.13300908 230.9921875 338.23828125 C230.33250977 337.29001465 229.67283203 336.34174805 228.99316406 335.36474609 C227.66974948 333.46262132 226.34618301 331.56060221 225.02246094 329.65869141 C221.55993965 324.68312845 218.10130958 319.70492129 214.6484375 314.72265625 C213.93300781 313.69140625 213.21757812 312.66015625 212.48046875 311.59765625 C211.11986596 309.63626781 209.76041015 307.67408299 208.40234375 305.7109375 C204.70847962 300.38900851 200.93286982 295.1481029 197 290 C193.80823908 293.16239582 190.6223919 296.33068759 187.4375 299.5 C186.54224609 300.386875 185.64699219 301.27375 184.72460938 302.1875 C180.23498438 306.66067948 175.90944819 311.18366352 171.78540039 315.99414062 C167.44536537 320.87007769 162.67763896 325.35676292 158.02734375 329.93359375 C153.7652762 334.1546141 149.69341441 338.43968391 145.78710938 342.99023438 C141.64943836 347.6434185 137.10991768 351.92548362 132.671875 356.2890625 C131.53492188 357.41441406 131.53492188 357.41441406 130.375 358.5625 C129.70210937 359.22378906 129.02921875 359.88507813 128.3359375 360.56640625 C123.85978469 365.22968919 119.67590885 370.11195837 115.72497559 375.22631836 C110.55531871 381.53530759 105.60304258 386.94674674 97.28833008 388.39892578 C90.57183914 389.04456804 83.88840681 388.80438827 77.15625 388.5625 C74.69054565 388.532598 72.22474518 388.50985096 69.75891113 388.49389648 C63.31852292 388.43326623 56.88405704 388.27654157 50.44598389 388.09863281 C43.85673124 387.93392952 37.26650601 387.86166653 30.67578125 387.78125 C17.7813505 387.61047711 4.89099243 387.34114463 -8 387 C-7.05952693 385.72550079 -6.1161731 384.45312707 -5.17163086 383.18164062 C-4.64661484 382.47285767 -4.12159882 381.76407471 -3.58067322 381.03381348 C-1.44904883 378.29110464 0.93827123 375.90854557 3.4375 373.5 C7.21899376 369.84510647 10.71801165 366.07399267 14.15893555 362.09716797 C17.24381769 358.58315954 20.46933687 355.20406403 23.6875 351.8125 C28.52742457 346.69148278 33.35471945 341.56100543 38.125 336.375 C42.39689312 331.7313222 46.69102732 327.10929858 51 322.5 C55.34880174 317.84743476 59.68513151 313.1840551 64 308.5 C68.90659139 303.1735933 73.84394139 297.87656925 78.7890625 292.5859375 C83.03026691 288.04579357 87.24958173 283.48610264 91.45874023 278.91625977 C95.30880049 274.73989081 99.18288738 270.58641328 103.0625 266.4375 C107.23121603 261.97878634 111.38169776 257.50533799 115.5 253 C120.21127288 247.84596432 124.96899392 242.7370629 129.73828125 237.63671875 C133.50701921 233.60466286 137.26087919 229.55952748 141 225.5 C145.90655631 220.17356122 150.84394166 214.87656896 155.7890625 209.5859375 C159.54029543 205.57030049 163.27686457 201.54169247 167 197.5 C171.90659139 192.1735933 176.84394139 186.87656925 181.7890625 181.5859375 C185.54029543 177.57030049 189.27686457 173.54169247 193 169.5 C197.90659139 164.1735933 202.84394139 158.87656925 207.7890625 153.5859375 C211.54029543 149.57030049 215.27686457 145.54169247 219 141.5 C223.31486909 136.81594425 227.65128069 132.15264291 232 127.5 C238.3617409 120.69267615 244.68767935 113.85313527 251 107 C257.90389439 99.5046073 264.83010524 92.03120872 271.78857422 84.58642578 C275.54000059 80.57065447 279.27670869 76.54186169 283 72.5 C287.90659139 67.1735933 292.84394139 61.87656925 297.7890625 56.5859375 C301.99045898 52.08840734 306.17086853 47.57215124 310.34008789 43.0447998 C314.33441134 38.71156193 318.35192438 34.40028868 322.375 30.09375 C323.01566406 29.40764648 323.65632813 28.72154297 324.31640625 28.01464844 C325.87743944 26.34294499 327.4386401 24.6713983 329 23 C322.29820729 22.61549426 315.5993031 22.35537078 308.88891602 22.17602539 C306.61374733 22.10118961 304.33928528 21.99926536 302.06665039 21.8684082 C287.91422816 20.75635931 287.91422816 20.75635931 275.30908203 26.12451172 C271.41376611 29.72968236 268.18631567 33.77174005 265 38 C263.7313862 39.45900077 262.45327363 40.90994599 261.15625 42.34375 C260.6509375 42.94058594 260.145625 43.53742187 259.625 44.15234375 C255.36576899 48.99517132 250.62146928 53.41204524 246.02734375 57.93359375 C242.39660828 61.52936227 238.82942643 65.12146956 235.5 69 C230.66867614 74.62812757 225.31002622 79.73436598 220.02734375 84.93359375 C215.7652762 89.1546141 211.69341441 93.43968391 207.78710938 97.99023438 C203.64943836 102.6434185 199.10991768 106.92548362 194.671875 111.2890625 C191.16907073 114.75612387 187.74236279 118.22804602 184.53125 121.96875 C179.68703971 127.60544631 174.32068928 132.72387138 169.02734375 137.93359375 C165.39660828 141.52936227 161.82942643 145.12146956 158.5 149 C153.66867614 154.62812757 148.31002622 159.73436598 143.02734375 164.93359375 C138.6671281 169.25181696 134.45869293 173.6241684 130.47192383 178.29101562 C128.42008192 180.67331673 126.32151635 182.87747076 124 185 C123.34 185 122.68 185 122 185 C120.72583008 183.43052673 120.72583008 183.43052673 119.26953125 181.19897461 C118.44727051 179.95022804 118.44727051 179.95022804 117.60839844 178.67625427 C117.01575195 177.7608638 116.42310547 176.84547333 115.8125 175.90234375 C115.19536133 174.96129288 114.57822266 174.020242 113.94238281 173.05067444 C111.95502513 170.01718506 109.97733109 166.97753238 108 163.9375 C106.69726577 161.94423571 105.39388774 159.95139203 104.08984375 157.95898438 C102.16893286 155.02357887 100.24865184 152.08777843 98.33110046 149.150177 C94.49119872 143.2684205 90.62228307 137.40786092 86.7155304 131.57035828 C83.35052477 126.53801412 80.02188708 121.48225439 76.69921875 116.421875 C64.32417806 97.58209552 51.88405812 78.79228605 39.25 60.125 C29.64471574 45.93003879 20.11374639 31.68957609 10.6875 17.375 C10.13831909 16.54260803 9.58913818 15.71021606 9.02331543 14.8526001 C7.49593877 12.53629304 5.97189201 10.21783834 4.44921875 7.8984375 C3.9945372 7.2090509 3.53985565 6.51966431 3.07139587 5.80938721 C0 1.11552941 0 1.11552941 0 0 Z " fill="#000000" transform="translate(8,0)"/>
<path d="M0 0 C20.79 0 41.58 0 63 0 C63 122.43 63 244.86 63 371 C42.21 371 21.42 371 0 371 C0 366.38 0 361.76 0 357 C-0.88558594 357.44730469 -1.77117187 357.89460938 -2.68359375 358.35546875 C-9.51174208 361.72099715 -16.3183217 364.64727843 -23.625 366.8125 C-24.26751709 367.00674561 -24.91003418 367.20099121 -25.57202148 367.40112305 C-36.90221155 370.60316385 -48.33610311 371.39036784 -60.0625 371.375 C-60.73676025 371.37478851 -61.41102051 371.37457703 -62.10571289 371.37435913 C-73.77102115 371.33803845 -84.74775679 370.17210563 -96 367 C-96.67369629 366.81808105 -97.34739258 366.63616211 -98.04150391 366.44873047 C-117.11208233 361.18090098 -132.73846662 350.47180678 -147 337 C-148.12535156 335.97132813 -148.12535156 335.97132813 -149.2734375 334.921875 C-172.15073539 313.24864542 -183.0126143 282.4925206 -184.125 251.51953125 C-184.63927772 221.01643382 -176.11167527 192.37607032 -156 169 C-155.2884375 168.16597656 -154.576875 167.33195313 -153.84375 166.47265625 C-133.31786613 143.0196657 -105.27882486 127.70807628 -74 125 C-47.27029684 123.58687053 -25.00079592 126.99960204 -1 139 C-0.67 93.13 -0.34 47.26 0 0 Z M-106.25390625 208.34375 C-116.90712544 220.7960897 -122.0102027 236.70545936 -120.85693359 253.02441406 C-119.07402923 269.33541943 -111.48705107 283.57728569 -99.1796875 294.50390625 C-84.33714357 306.2655566 -68.47290235 309.44284954 -50 308 C-33.05366005 305.6632555 -20.00916615 295.33254588 -9.83203125 282.203125 C-0.32774861 268.17974849 1.64549265 252.10355615 -0.42578125 235.609375 C-3.95075609 219.43341685 -14.62461484 205.42485383 -28.3984375 196.4609375 C-55.0459583 181.49671411 -85.06644289 186.31172571 -106.25390625 208.34375 Z " fill="#000000" transform="translate(846,16)"/>
<path d="M0 0 C0.96679688 0.8146875 1.93359375 1.629375 2.9296875 2.46875 C25.63160469 22.34078832 40.44366542 50.87253182 43 81 C43.46145523 91.66634526 43.75752863 102.45482819 42 113 C-17.07 113.33 -76.14 113.66 -137 114 C-127.26251747 133.47496505 -118.47536327 145.00905116 -98 152 C-92.12874817 153.73111137 -86.85952514 154.35599301 -80.75 154.3125 C-79.49884399 154.30404053 -79.49884399 154.30404053 -78.22241211 154.29541016 C-60.23478946 153.94383785 -47.41732951 146.37329642 -35 134 C-31.5705315 135.42925669 -29.87804188 137.08660971 -27.671875 140.05078125 C-27.04442383 140.88464355 -26.41697266 141.71850586 -25.77050781 142.57763672 C-25.10374023 143.4801416 -24.43697266 144.38264648 -23.75 145.3125 C-22.32330387 147.21773793 -20.89620851 149.12267695 -19.46875 151.02734375 C-18.73527344 152.0107373 -18.00179688 152.99413086 -17.24609375 154.00732422 C-15.02936447 156.96087504 -12.78631792 159.89205082 -10.53125 162.81640625 C-9.81356445 163.74864014 -9.09587891 164.68087402 -8.35644531 165.64135742 C-6.98327927 167.42338572 -5.60774065 169.20358906 -4.22949219 170.98168945 C-0.76246988 175.5024408 2.31648438 179.97179648 5 185 C-11.81352955 199.96982009 -30.7467491 211.44563659 -53 216 C-53.85295654 216.17587646 -54.70591309 216.35175293 -55.5847168 216.53295898 C-63.80445778 218.08108707 -71.83685127 218.34841677 -80.1875 218.3125 C-81.21138321 218.30926727 -81.21138321 218.30926727 -82.25595093 218.30596924 C-117.49001625 218.12766806 -146.59627505 205.05492934 -171.25219727 180.16577148 C-194.87259611 155.6270726 -204.58281977 123.74321109 -204.14453125 90.08203125 C-203.39053966 57.25581198 -189.85373957 28.18591843 -166.62133789 5.26660156 C-121.55970407 -37.7319695 -47.53789983 -40.2148291 0 0 Z M-124.6484375 53.08203125 C-127.86588816 57.07444926 -130.36191629 61.60319381 -133 66 C-98.35 66 -63.7 66 -28 66 C-35.70603991 52.12912816 -45.37974845 42.15304732 -60.75390625 37.09375 C-84.10365997 30.78142609 -107.42074611 35.8839407 -124.6484375 53.08203125 Z " fill="#000000" transform="translate(1153,169)"/>
<path d="M0 0 C20.79 0 41.58 0 63 0 C63.03738281 9.30574219 63.07476562 18.61148438 63.11328125 28.19921875 C63.14357281 34.11004068 63.1746083 40.02084337 63.20898438 45.93164062 C63.26335732 55.30442518 63.31477496 64.67715635 63.34643555 74.05004883 C63.36951349 80.87796138 63.40301943 87.70573238 63.44870156 94.53353244 C63.47250273 98.14399027 63.49131681 101.75430906 63.49761391 105.36484337 C63.5048649 109.40968912 63.53541228 113.45405521 63.56762695 117.4987793 C63.56619186 118.67698746 63.56475677 119.85519562 63.5632782 121.06910706 C63.76405683 139.00613758 69.3642755 154.64030316 82.1015625 167.37109375 C96.34541318 180.2903815 112.09899298 183.90161501 130.76904297 183.14355469 C146.52850215 182.12948574 159.69259253 173.2503226 169.99609375 161.77734375 C180.14156668 149.40641225 183.4510108 136.20973784 183.43237305 120.45043945 C183.4425647 119.14185471 183.45275635 117.83326996 183.46325684 116.48503113 C183.49060139 112.93205402 183.50008027 109.3792369 183.50611091 105.8261683 C183.51555396 102.09988451 183.54176165 98.3737175 183.56611633 94.64750671 C183.60962307 87.60720216 183.63826683 80.56692047 183.66143972 73.52652282 C183.69366087 64.00167714 183.74910765 54.47696765 183.80318546 44.95222569 C183.88765246 29.9681912 183.94131775 14.98420905 184 0 C204.79 0 225.58 0 247 0 C247.1209091 34.42326934 247.1209091 34.42326934 247.14648438 48.93554688 C247.16423081 58.92477074 247.18500331 68.91391825 247.22631836 78.90307617 C247.25640386 86.18067872 247.275618 93.45821885 247.28226548 100.73588187 C247.28614564 104.58238656 247.2951375 108.42871285 247.31719017 112.27515984 C247.53310163 151.49495416 239.58746944 183.9070099 211.44482422 212.546875 C196.04477074 228.03540462 177.12476805 238.54464647 156 244 C154.16695312 244.48146484 154.16695312 244.48146484 152.296875 244.97265625 C131.7590374 249.44192253 108.17138471 248.84710285 88 243 C86.90026855 242.68651611 86.90026855 242.68651611 85.77832031 242.36669922 C55.49866694 233.42743844 30.17432263 211.71931676 14.81640625 184.34985352 C4.10095501 164.62294542 -0.35860228 144.27123076 -0.22705078 121.92626953 C-0.22648468 120.58432016 -0.22680709 119.24237016 -0.22793579 117.90042114 C-0.22850256 114.30626724 -0.21685966 110.71225067 -0.20278788 107.1181283 C-0.190166 103.34388609 -0.18910109 99.5696397 -0.18673706 95.79537964 C-0.18055559 88.67012336 -0.16419059 81.54492948 -0.14403808 74.4197005 C-0.1173626 64.77595044 -0.10667946 55.13218295 -0.09503365 45.48840523 C-0.07630704 30.32555687 -0.0364394 15.16284011 0 0 Z " fill="#000000" transform="translate(375,140)"/>
<path d="M0 0 C2.475 0.495 2.475 0.495 5 1 C6.36328125 3.28515625 6.36328125 3.28515625 7.3125 6.0625 C7.63863281 6.98160156 7.96476562 7.90070313 8.30078125 8.84765625 C8.53152344 9.55792969 8.76226563 10.26820313 9 11 C9.64834654 9.730447 10.29357815 8.45930294 10.9375 7.1875 C11.47697266 6.12595703 11.47697266 6.12595703 12.02734375 5.04296875 C13.10730516 2.88189715 13.10730516 2.88189715 14 0 C15.65 0 17.3 0 19 0 C19 6.6 19 13.2 19 20 C18.01 20 17.02 20 16 20 C15.67 16.7 15.34 13.4 15 10 C13.68 13.3 12.36 16.6 11 20 C10.01 20 9.02 20 8 20 C6.68 16.7 5.36 13.4 4 10 C3.67 13.3 3.34 16.6 3 20 C2.01 20 1.02 20 0 20 C0 13.4 0 6.8 0 0 Z " fill="#000000" transform="translate(1184,140)"/>
<path d="M0 0 C4.95 0 9.9 0 15 0 C15 0.99 15 1.98 15 3 C13.02 3 11.04 3 9 3 C9 8.61 9 14.22 9 20 C8.01 20 7.02 20 6 20 C6 14.39 6 8.78 6 3 C4.02 3 2.04 3 0 3 C0 2.01 0 1.02 0 0 Z " fill="#000000" transform="translate(1165,140)"/>
</svg>
